<svg xmlns="http://www.w3.org/2000/svg" width="810" height="851" viewBox="0 0 810 851" fill="none">
  <path fill-rule="evenodd" clip-rule="evenodd" d="M1206.52 201.482L1208.8 209.539L1210.88 217.649L1212.74 225.807L1214.39 234.009L1215.82 242.25L1217.04 250.526L1218.05 258.834L1218.84 267.169L1219.43 275.528L1219.82 283.906L1220 292.301L1219.98 300.709L1219.77 309.127L1219.37 317.552L1218.78 325.982L1218 334.414L1217.05 342.847L1215.93 351.277L1214.63 359.705L1213.18 368.128L1211.56 376.545L1209.79 384.955L1207.87 393.358L1205.81 401.753L1203.61 410.14L1201.26 418.518L1198.79 426.887L1196.18 435.247L1193.45 443.599L1190.6 451.942L1187.62 460.276L1184.52 468.602L1181.3 476.918L1177.97 485.226L1174.51 493.525L1170.94 501.815L1167.26 510.094L1163.45 518.362L1159.52 526.618L1155.47 534.861L1151.3 543.088L1147 551.297L1142.57 559.487L1138.01 567.654L1133.32 575.796L1128.48 583.909L1123.5 591.99L1118.38 600.035L1113.11 608.041L1107.69 616.002L1102.12 623.915L1096.39 631.775L1090.5 639.576L1084.44 647.314L1078.23 654.984L1071.84 662.58L1065.29 670.095L1058.56 677.526L1051.67 684.865L1044.6 692.106L1037.36 699.244L1029.95 706.273L1022.36 713.187L1014.6 719.979L1006.66 726.644L998.556 733.176L990.282 739.569L981.839 745.817L973.232 751.916L964.462 757.859L955.533 763.643L946.448 769.261L937.21 774.71L927.826 779.985L918.298 785.083L908.631 789.999L898.832 794.731L888.905 799.275L878.855 803.63L868.69 807.792L858.414 811.761L848.034 815.535L837.557 819.113L826.988 822.494L816.335 825.678L805.603 828.665L794.8 831.456L783.931 834.051L773.004 836.453L762.025 838.661L751 840.679L739.936 842.508L728.837 844.15L717.711 845.608L706.563 846.884L695.399 847.983L684.223 848.906L673.042 849.656L661.859 850.238L650.679 850.653L639.508 850.906L628.349 851L617.205 850.938L606.082 850.723L594.981 850.358L583.908 849.846L572.863 849.19L561.852 848.393L550.876 847.456L539.938 846.383L529.041 845.174L518.187 843.833L507.379 842.359L496.618 840.756L485.907 839.022L475.249 837.16L464.645 835.169L454.098 833.05L443.611 830.804L433.185 828.43L422.823 825.928L412.529 823.299L402.303 820.543L392.15 817.659L382.071 814.647L372.069 811.508L362.149 808.24L352.311 804.845L342.56 801.321L332.899 797.669L323.33 793.889L313.858 789.98L304.485 785.943L295.214 781.779L286.05 777.487L276.995 773.069L268.054 768.524L259.229 763.854L250.523 759.06L241.941 754.142L233.486 749.103L225.16 743.945L216.967 738.668L208.91 733.274L200.991 727.767L193.215 722.148L185.582 716.42L178.097 710.586L170.761 704.647L163.576 698.608L156.546 692.471L149.672 686.238L142.956 679.914L136.399 673.501L130.004 667.002L123.772 660.422L117.704 653.764L111.8 647.032L106.062 640.228L100.491 633.358L95.0861 626.425L89.8477 619.433L84.7759 612.387L79.8701 605.289L75.1297 598.145L70.5541 590.958L66.142 583.732L61.8924 576.472L57.8037 569.181L53.8744 561.863L50.1028 554.522L46.4868 547.162L43.0246 539.787L39.7138 532.399L36.5524 525.002L33.5379 517.6L30.668 510.196L27.9404 502.792L25.3527 495.392L22.9023 487.997L20.5872 480.611L18.4048 473.236L16.3532 465.873L14.4301 458.525L12.6335 451.194L10.9618 443.881L9.41314 436.587L7.98607 429.315L6.67928 422.065L5.49163 414.839L4.42211 407.636L3.46984 400.46L2.63403 393.31L1.91401 386.187L1.30919 379.092L0.819122 372.026L0.443415 364.989L0.181787 357.984L0.0340279 351.009L0 344.067L0.079623 337.158L0.272864 330.283L0.579725 323.442L1.00023 316.637L1.5344 309.868L2.18226 303.137L2.9438 296.445L3.81898 289.792L4.8077 283.18L5.90977 276.61L7.12494 270.082L8.45284 263.599L9.89299 257.162L11.4447 250.771L13.1074 244.428L14.8799 238.134L16.7612 231.891L18.7501 225.701L20.845 219.563L23.0442 213.48L25.3457 207.453L27.7469 201.482L30.245 195.57L32.8369 189.717L35.519 183.923L38.2874 178.191L41.1379 172.52L44.0661 166.91L47.0672 161.363L50.1362 155.878L53.2679 150.455L56.4571 145.093L59.6982 139.792L62.9856 134.551L66.3137 129.37L69.6768 124.245L73.0693 119.177L76.4855 114.163L79.92 109.202L83.3674 104.29L86.8224 99.4257L90.2801 94.6062L93.7357 89.8286L97.1849 85.09L100.623 80.3872L104.047 75.7168L107.454 71.0756L110.839 66.4601L114.202 61.8669L117.539 57.2924L120.849 52.7332L124.131 48.1859L127.385 43.6472L130.611 39.1139L133.808 34.583L136.979 30.0517L140.125 25.5173L143.248 20.9775L146.351 16.4302L149.437 11.8738L152.51 7.30677L155.574 2.72832L158.635 -1.86217L161.696 -6.46479L164.763 -11.0793L167.843 -15.7051L170.94 -20.3412L174.061 -24.9864L177.21 -29.6389L180.394 -34.2967L183.62 -38.9576L186.891 -43.6188L190.214 -48.2774L193.595 -52.9302L197.039 -57.5735L200.551 -62.2036L204.136 -66.8164L207.798 -71.4076L211.542 -75.9728L215.373 -80.5073L219.293 -85.0064L223.307 -89.4652L227.417 -93.8786L231.626 -98.2417L235.936 -102.549L240.349 -106.796L244.868 -110.978L249.491 -115.089L254.222 -119.125L259.058 -123.081L264.001 -126.952L269.049 -130.734L274.202 -134.423L279.458 -138.014L284.816 -141.505L290.272 -144.892L295.825 -148.172L301.472 -151.342L307.209 -154.399L313.034 -157.342L318.942 -160.17L324.929 -162.881L330.993 -165.473L337.127 -167.948L343.329 -170.304L349.593 -172.543L355.915 -174.665L362.292 -176.67L368.717 -178.562L375.188 -180.341L381.699 -182.011L388.247 -183.572L394.826 -185.03L401.435 -186.385L408.068 -187.642L414.723 -188.805L421.396 -189.877L428.083 -190.862L434.784 -191.764L441.494 -192.587L448.212 -193.335L454.936 -194.012L461.664 -194.623L468.396 -195.17L475.129 -195.659L481.864 -196.092L488.6 -196.474L495.337 -196.807L502.075 -197.094L508.814 -197.338L515.554 -197.541L522.296 -197.705L529.041 -197.833L535.79 -197.924L542.544 -197.979L549.303 -198L556.068 -197.985L562.841 -197.934L569.622 -197.846L576.411 -197.72L583.211 -197.554L590.02 -197.347L596.84 -197.098L603.67 -196.804L610.512 -196.464L617.364 -196.076L624.228 -195.637L631.102 -195.146L637.986 -194.6L644.88 -193.996L651.784 -193.333L658.695 -192.608L665.614 -191.818L672.538 -190.962L679.468 -190.037L686.4 -189.041L693.335 -187.972L700.27 -186.828L707.203 -185.606L714.133 -184.306L721.058 -182.924L727.975 -181.461L734.884 -179.914L741.781 -178.282L748.665 -176.564L755.534 -174.76L762.386 -172.869L769.219 -170.89L776.031 -168.823L782.821 -166.668L789.587 -164.425L796.327 -162.095L803.041 -159.679L809.728 -157.178L816.387 -154.592L823.017 -151.923L829.617 -149.173L836.189 -146.342L842.732 -143.433L849.247 -140.448L855.733 -137.388L862.193 -134.255L868.626 -131.05L875.035 -127.776L881.419 -124.435L887.783 -121.028L894.126 -117.556L900.45 -114.022L906.758 -110.426L913.051 -106.77L919.332 -103.055L925.603 -99.2819L931.865 -95.4511L938.12 -91.5633L944.371 -87.6188L950.619 -83.6176L956.866 -79.5595L963.113 -75.4442L969.361 -71.2711L975.612 -67.0393L981.866 -62.7478L988.124 -58.3953L994.385 -53.9803L1000.65 -49.5012L1006.92 -44.9561L1013.19 -40.3431L1019.45 -35.66L1025.72 -30.9046L1031.99 -26.0745L1038.24 -21.1673L1044.49 -16.1804L1050.72 -11.1115L1056.93 -5.95799L1063.12 -0.717489L1069.29 4.61232L1075.42 10.0337L1081.51 15.5487L1087.55 21.1592L1093.55 26.8671L1099.49 32.674L1105.36 38.5812L1111.17 44.5899L1116.89 50.7011L1122.54 56.9154L1128.08 63.2333L1133.53 69.6548L1138.88 76.18L1144.1 82.8084L1149.21 89.5392L1154.18 96.3716L1159.02 103.304L1163.72 110.335L1168.26 117.464L1172.65 124.687L1176.87 132.002L1180.92 139.407L1184.79 146.898L1188.48 154.474L1191.98 162.129L1195.29 169.862L1198.41 177.667L1201.32 185.542L1204.02 193.481L1206.52 201.482Z" fill="url(#paint0_linear_12_48)"/>
  <defs>
    <linearGradient id="paint0_linear_12_48" x1="632.813" y1="-282.947" x2="772.811" y2="759.967" gradientUnits="userSpaceOnUse">
      <stop stop-color="#00A8F7"/>
      <stop offset="1" stop-color="#21213D"/>
    </linearGradient>
  </defs>
</svg>